ffmpeg started on 2016-12-05 at 13:37:45
Report written to "Output/x264/results/ffmpeg/sintelfaster3000k.log"
Command line:
Tools/ffmpeg/ffmpeg -benchmark -y -i Input/y4m/sintel.y4m -c:v libx264 -preset faster -b:v 3000k -an Output/x264/encoded/sintelfaster3000k.mkv
ffmpeg version N-82227-gdb23fde Copyright (c) 2000-2016 the FFmpeg developers
  built with gcc 5.4.0 (Ubuntu 5.4.0-6ubuntu1~16.04.2) 20160609
  configuration: --prefix=/home/jaroslav/ffmpeg_build --pkg-config-flags=--static --extra-cflags=-I/home/jaroslav/ffmpeg_build/include --extra-ldflags=-L/home/jaroslav/ffmpeg_build/lib --bindir=/home/jaroslav/bin --enable-gpl --enable-libass --enable-libfdk-aac --enable-libfreetype --enable-libmp3lame --enable-libopus --enable-libtheora --enable-libvorbis --enable-libvpx --enable-libx264 --enable-libx265 --enable-nvenc --enable-libmfx --enable-libxvid --enable-libgsm --enable-libopencore-amrnb --enable-version3 --enable-nonfree
  libavutil      55. 35.100 / 55. 35.100
  libavcodec     57. 66.101 / 57. 66.101
  libavformat    57. 57.100 / 57. 57.100
  libavdevice    57.  2.100 / 57.  2.100
  libavfilter     6. 66.100 /  6. 66.100
  libswscale      4.  3.100 /  4.  3.100
  libswresample   2.  4.100 /  2.  4.100
  libpostproc    54.  2.100 / 54.  2.100
Input #0, yuv4mpegpipe, from 'Input/y4m/sintel.y4m':
  Duration: 00:00:20.83, start: 0.000000, bitrate: 2057307 kb/s
    Stream #0:0: Video: rawvideo (I420 / 0x30323449), yuv420p(progressive), 4096x1744, SAR 1:1 DAR 256:109, 24 fps, 24 tbr, 24 tbn, 24 tbc
[libx264 @ 0x35711c0] using SAR=1/1
[libx264 @ 0x35711c0] using cpu capabilities: MMX2 SSE2Fast SSSE3 SSE4.2 AVX FMA3 AVX2 LZCNT BMI2
[libx264 @ 0x35711c0] profile High, level 5.1
[libx264 @ 0x35711c0] 264 - core 148 - H.264/MPEG-4 AVC codec - Copyleft 2003-2016 - http://www.videolan.org/x264.html - options: cabac=1 ref=2 deblock=1:0:0 analyse=0x3:0x113 me=hex subme=4 psy=1 psy_rd=1.00:0.00 mixed_ref=0 me_range=16 chroma_me=1 trellis=1 8x8dct=1 cqm=0 deadzone=21,11 fast_pskip=1 chroma_qp_offset=0 threads=6 lookahead_threads=1 sliced_threads=0 nr=0 decimate=1 interlaced=0 bluray_compat=0 constrained_intra=0 bframes=3 b_pyramid=2 b_adapt=1 b_bias=0 direct=1 weightb=1 open_gop=0 weightp=1 keyint=250 keyint_min=24 scenecut=40 intra_refresh=0 rc_lookahead=20 rc=abr mbtree=1 bitrate=3000 ratetol=1.0 qcomp=0.60 qpmin=0 qpmax=69 qpstep=4 ip_ratio=1.40 aq=1:1.00
Output #0, matroska, to 'Output/x264/encoded/sintelfaster3000k.mkv':
  Metadata:
    encoder         : Lavf57.57.100
    Stream #0:0: Video: h264 (libx264) (H264 / 0x34363248), yuv420p, 4096x1744 [SAR 1:1 DAR 256:109], q=-1--1, 3000 kb/s, 24 fps, 1k tbn, 24 tbc
    Metadata:
      encoder         : Lavc57.66.101 libx264
    Side data:
      cpb: bitrate max/min/avg: 0/0/3000000 buffer size: 0 vbv_delay: -1
Stream mapping:
  Stream #0:0 -> #0:0 (rawvideo (native) -> h264 (libx264))
Press [q] to stop, [?] for help
frame=   10 fps=0.0 q=0.0 size=       0kB time=00:00:00.00 bitrate=N/A speed=   0x    frame=   19 fps= 18 q=0.0 size=       0kB time=00:00:00.00 bitrate=N/A speed=   0x    frame=   27 fps= 11 q=0.0 size=       0kB time=00:00:00.00 bitrate=N/A speed=   0x    frame=   35 fps= 11 q=39.0 size=       1kB time=00:00:00.08 bitrate=  69.8kbits/s speed=0.0261x    frame=   38 fps= 10 q=53.0 size=       1kB time=00:00:00.20 bitrate=  28.1kbits/s speed=0.0558x    frame=   47 fps= 11 q=54.0 size=       1kB time=00:00:00.58 bitrate=  10.0kbits/s speed=0.136x    frame=   56 fps=6.7 q=55.0 size=       1kB time=00:00:00.95 bitrate=   6.1kbits/s speed=0.115x    frame=   57 fps=5.8 q=55.0 size=       1kB time=00:00:01.00 bitrate=   5.9kbits/s speed=0.101x    frame=   67 fps=6.4 q=54.0 size=       1kB time=00:00:01.41 bitrate=   4.1kbits/s speed=0.136x    frame=   75 fps=6.8 q=54.0 size=       1kB time=00:00:01.75 bitrate=   3.3kbits/s speed=0.16x    frame=   83 fps=7.2 q=53.0 size=       1kB time=00:00:02.08 bitrate=   2.8kbits/s speed=0.181x    frame=   91 fps=7.5 q=53.0 size=       1kB time=00:00:02.41 bitrate=   2.4kbits/s speed= 0.2x    frame=   99 fps=7.8 q=53.0 size=       1kB time=00:00:02.75 bitrate=   2.1kbits/s speed=0.217x    frame=  106 fps=8.1 q=53.0 size=       1kB time=00:00:03.04 bitrate=   1.9kbits/s speed=0.231x    frame=  113 fps=8.3 q=53.0 size=       1kB time=00:00:03.33 bitrate=   1.8kbits/s speed=0.244x    frame=  120 fps=8.4 q=53.0 size=       1kB time=00:00:03.62 bitrate=   1.6kbits/s speed=0.255x    frame=  127 fps=8.6 q=53.0 size=    1828kB time=00:00:03.91 bitrate=3821.7kbits/s speed=0.266x    frame=  135 fps=8.8 q=53.0 size=    1828kB time=00:00:04.25 bitrate=3522.3kbits/s speed=0.278x    frame=  142 fps=9.0 q=53.0 size=    1828kB time=00:00:04.54 bitrate=3295.9kbits/s speed=0.287x    frame=  151 fps=9.2 q=53.0 size=    1828kB time=00:00:04.91 bitrate=3044.6kbits/s speed= 0.3x    frame=  159 fps=9.4 q=53.0 size=    1828kB time=00:00:05.25 bitrate=2851.5kbits/s speed=0.31x    frame=  166 fps=9.5 q=54.0 size=    1828kB time=00:00:05.54 bitrate=2701.3kbits/s speed=0.318x    frame=  174 fps=9.7 q=54.0 size=    1828kB time=00:00:05.87 bitrate=2548.2kbits/s speed=0.326x    frame=  182 fps=9.8 q=51.0 size=    1828kB time=00:00:06.20 bitrate=2411.6kbits/s speed=0.336x    frame=  189 fps=9.9 q=54.0 size=    2728kB time=00:00:06.50 bitrate=3437.8kbits/s speed=0.342x    frame=  197 fps= 10 q=53.0 size=    2728kB time=00:00:06.83 bitrate=3270.3kbits/s speed=0.349x    frame=  205 fps= 10 q=53.0 size=    2728kB time=00:00:07.16 bitrate=3117.9kbits/s speed=0.356x    frame=  210 fps= 10 q=53.0 size=    2728kB time=00:00:07.37 bitrate=3030.0kbits/s speed=0.357x    frame=  218 fps= 10 q=53.0 size=    3083kB time=00:00:07.70 bitrate=3276.3kbits/s speed=0.363x    frame=  225 fps= 10 q=53.0 size=    3083kB time=00:00:08.00 bitrate=3156.8kbits/s speed=0.368x    frame=  233 fps= 10 q=53.0 size=    3083kB time=00:00:08.33 bitrate=3030.6kbits/s speed=0.374x    frame=  242 fps= 11 q=53.0 size=    3083kB time=00:00:08.70 bitrate=2900.1kbits/s speed=0.381x    frame=  249 fps= 11 q=53.0 size=    3083kB time=00:00:09.00 bitrate=2806.0kbits/s speed=0.386x    frame=  256 fps= 11 q=53.0 size=    3083kB time=00:00:09.29 bitrate=2717.9kbits/s speed=0.39x    frame=  263 fps= 11 q=52.0 size=    3083kB time=00:00:09.58 bitrate=2635.3kbits/s speed=0.393x    frame=  271 fps= 11 q=52.0 size=    3083kB time=00:00:09.91 bitrate=2546.6kbits/s speed=0.398x    frame=  280 fps= 11 q=52.0 size=    3083kB time=00:00:10.29 bitrate=2453.8kbits/s speed=0.404x    frame=  290 fps= 11 q=52.0 size=    3083kB time=00:00:10.70 bitrate=2358.5kbits/s speed=0.412x    frame=  293 fps= 11 q=52.0 size=    3083kB time=00:00:10.83 bitrate=2331.3kbits/s speed=0.408x    frame=  303 fps= 11 q=51.0 size=    4020kB time=00:00:11.25 bitrate=2926.7kbits/s speed=0.416x    frame=  313 fps= 11 q=51.0 size=    4020kB time=00:00:11.66 bitrate=2822.1kbits/s speed=0.423x    frame=  325 fps= 12 q=51.0 size=    4020kB time=00:00:12.16 bitrate=2706.2kbits/s speed=0.431x    frame=  337 fps= 12 q=50.0 size=    4020kB time=00:00:12.66 bitrate=2599.3kbits/s speed=0.44x    frame=  349 fps= 12 q=49.0 size=    4020kB time=00:00:13.16 bitrate=2500.6kbits/s speed=0.448x    frame=  361 fps= 12 q=49.0 size=    4020kB time=00:00:13.66 bitrate=2409.2kbits/s speed=0.456x    frame=  371 fps= 12 q=48.0 size=    4020kB time=00:00:14.08 bitrate=2338.0kbits/s speed=0.459x    frame=  381 fps= 12 q=48.0 size=    4020kB time=00:00:14.50 bitrate=2270.8kbits/s speed=0.464x    frame=  388 fps= 12 q=45.0 size=    4020kB time=00:00:14.79 bitrate=2225.9kbits/s speed=0.466x    frame=  399 fps= 12 q=47.0 size=    4666kB time=00:00:15.25 bitrate=2506.4kbits/s speed=0.472x    frame=  406 fps= 12 q=47.0 size=    4666kB time=00:00:15.54 bitrate=2459.3kbits/s speed=0.474x    frame=  415 fps= 12 q=47.0 size=    4666kB time=00:00:15.91 bitrate=2401.4kbits/s speed=0.478x    frame=  424 fps= 13 q=46.0 size=    4666kB time=00:00:16.29 bitrate=2346.1kbits/s speed=0.481x    frame=  431 fps= 13 q=46.0 size=    4666kB time=00:00:16.58 bitrate=2304.9kbits/s speed=0.482x    frame=  440 fps= 13 q=46.0 size=    4666kB time=00:00:16.95 bitrate=2254.0kbits/s speed=0.486x    frame=  451 fps= 13 q=46.0 size=    5367kB time=00:00:17.41 bitrate=2524.3kbits/s speed=0.492x    frame=  459 fps= 13 q=46.0 size=    5367kB time=00:00:17.75 bitrate=2477.0kbits/s speed=0.494x    frame=  468 fps= 13 q=46.0 size=    5367kB time=00:00:18.12 bitrate=2425.7kbits/s speed=0.497x    frame=  477 fps= 13 q=45.0 size=    5367kB time=00:00:18.50 bitrate=2376.6kbits/s speed=0.499x    frame=  487 fps= 13 q=45.0 size=    5367kB time=00:00:18.91 bitrate=2324.2kbits/s speed=0.502x    frame=  495 fps= 13 q=45.0 size=    5367kB time=00:00:19.25 bitrate=2284.0kbits/s speed=0.504x    frame=  500 fps= 13 q=-1.0 Lsize=    6213kB time=00:00:20.70 bitrate=2457.7kbits/s speed=0.526x    
video:6208kB audio:0kB subtitle:0kB other streams:0kB global headers:0kB muxing overhead: 0.072153%
bench: utime=99.436s
bench: maxrss=1114776kB
[libx264 @ 0x35711c0] frame I:8     Avg QP:39.97  size: 37952
[libx264 @ 0x35711c0] frame P:269   Avg QP:46.11  size: 14799
[libx264 @ 0x35711c0] frame B:223   Avg QP:44.96  size:  9293
[libx264 @ 0x35711c0] consecutive B-frames: 37.0%  8.4%  6.6% 48.0%
[libx264 @ 0x35711c0] mb I  I16..4: 57.8% 41.9%  0.2%
[libx264 @ 0x35711c0] mb P  I16..4: 27.0% 16.8%  0.0%  P16..4:  3.4%  0.2%  0.0%  0.0%  0.0%    skip:52.5%
[libx264 @ 0x35711c0] mb B  I16..4:  4.7%  3.1%  0.0%  B16..8: 10.0%  0.3%  0.0%  direct: 2.4%  skip:79.6%  L0:45.7% L1:52.9% BI: 1.4%
[libx264 @ 0x35711c0] final ratefactor: 43.32
[libx264 @ 0x35711c0] 8x8 transform intra:38.8% inter:94.6%
[libx264 @ 0x35711c0] coded y,uvDC,uvAC intra: 6.6% 15.9% 0.1% inter: 0.6% 1.3% 0.0%
[libx264 @ 0x35711c0] i16 v,h,dc,p: 61% 24% 10%  5%
[libx264 @ 0x35711c0] i8 v,h,dc,ddl,ddr,vr,hd,vl,hu:  6% 13% 74%  1%  1%  1%  1%  1%  1%
[libx264 @ 0x35711c0] i4 v,h,dc,ddl,ddr,vr,hd,vl,hu: 22% 23% 12%  6% 10%  6% 10%  4%  6%
[libx264 @ 0x35711c0] i8c dc,h,v,p: 96%  2%  2%  0%
[libx264 @ 0x35711c0] Weighted P-Frames: Y:0.7% UV:0.0%
[libx264 @ 0x35711c0] ref P L0: 58.5% 41.5%
[libx264 @ 0x35711c0] ref B L0: 80.7% 19.3%
[libx264 @ 0x35711c0] ref B L1: 95.4%  4.6%
[libx264 @ 0x35711c0] kb/s:2440.96
